<?xml version="1.0" encoding="UTF-8"?>
<svg id="Layer_1" xmlns="http://www.w3.org/2000/svg" version="1.1" viewBox="0 0 1080 194.4">
  <!-- Generator: Adobe Illustrator 29.5.1, SVG Export Plug-In . SVG Version: 2.1.0 Build 141)  -->
  <path d="M123.2,150.6v-71.4c0-9.8-11.8-14.7-18.8-7.8L12.3,163.5c-6.9,6.9-2,18.8,7.8,18.8h272.7c6.1,0,11.1-5,11.1-11.1V23.2c0-9.9-11.9-14.8-18.9-7.8l-143,143c-6.9,6.9-18.8,2-18.8-7.8Z"/>
  <path d="M595,12.1h-205.3c-5.8,0-10.5,4.7-10.5,10.5v154.4c0,2.9,2.3,5.2,5.2,5.2h27.3c2.9,0,5.2-2.3,5.2-5.2V51.3c0-2.9,2.3-5.2,5.2-5.2h46.2c2.9,0,5.2,2.3,5.2,5.2v125.7c0,2.9,2.3,5.2,5.2,5.2h27.3c2.9,0,5.2-2.3,5.2-5.2V51.3c0-2.9,2.3-5.2,5.2-5.2h46.1c2.9,0,5.2,2.3,5.2,5.2v125.7c0,2.9,2.3,5.2,5.2,5.2h27.3c2.9,0,5.2-2.3,5.2-5.2V22.6c0-5.8-4.7-10.5-10.5-10.5Z"/>
  <rect x="841.6" y="12.1" width="37.7" height="170.2" rx="5.3" ry="5.3"/>
  <path d="M723.1,187.2c-49.6,0-90-40.4-90-90S673.5,7.1,723.1,7.1s90,40.4,90,90-40.4,90-90,90ZM723.1,44.9c-28.8,0-52.3,23.5-52.3,52.3s23.5,52.3,52.3,52.3,52.3-23.5,52.3-52.3-23.5-52.3-52.3-52.3Z"/>
  <path d="M996.8,187.2c-48.6,0-88.9-39.1-90-87.9-.6-24.5,8.5-47.6,25.6-65.1,17.1-17.5,40-27.1,64.4-27.1s54.2,13,71.2,35c1.9,2.5,1.3,6.1-1.3,7.9l-22.3,15.1c-2.3,1.6-5.5,1.1-7.3-1.1-9.9-12-24.7-19.1-40.4-19.1s-27.5,5.6-37.4,15.8c-9.9,10.2-15.2,23.6-14.9,37.8.7,28.3,24,51,52.3,51s.6,0,1,0c16.1-.3,30.9-7.9,40.5-20.5,1.7-2.2,4.8-2.8,7.2-1.4l22.9,14.3c2.7,1.7,3.4,5.3,1.5,7.8-16.6,23-42.8,36.9-71.4,37.5-.6,0-1.1,0-1.7,0Z"/>
</svg>