<svg xmlns="http://www.w3.org/2000/svg" viewBox="0 0 50 52" fill="none">
  <path d="M20.8274 31.352C21.8792 31.6503 23.0394 31.7233 23.3837 32.3282C23.3837 32.3282 23.4839 31.158 23.3837 30.5155C23.2835 29.8751 22.5636 30.4779 22.2402 30.7762C21.7853 31.1997 21.3032 31.2727 20.7064 31.0119C20.1096 30.7512 19.6004 30.1358 19.4272 29.7666C19.4272 29.7666 19.7757 31.0537 20.8254 31.352H20.8274Z" fill="#F8F6ED"></path>
  <path d="M31.6978 20.6079C31.8376 20.633 32.088 20.7102 32.1673 20.9751C32.2466 21.24 32.3008 21.6238 32.8309 21.4903C33.3609 21.3568 33.2482 20.343 33.2482 20.343C33.2482 20.343 33.1543 20.5933 32.9122 20.6059C32.8058 20.61 32.7453 20.5621 32.641 20.4473C32.5366 20.3326 32.3655 20.1782 31.5329 20.0009C30.7003 19.8236 30.669 19.5483 30.5918 19.4189C30.5146 19.2896 30.2496 18.9454 29.5276 18.9141C28.9579 18.8891 28.7388 19.106 28.7388 19.106C28.7388 19.106 28.9078 19.1039 29.0601 19.1665C29.3272 19.2771 29.6611 19.6004 29.7362 19.9258C29.8114 20.2533 29.755 20.3201 29.6089 20.2283C29.4629 20.1365 29.2375 20.0614 29.2375 20.2116C29.2375 20.3618 29.2542 20.4807 29.2542 20.4807C29.2542 20.4807 29.3731 20.3597 29.467 20.4661C29.5609 20.5725 29.8134 20.973 29.9386 21.069C30.0638 21.1649 30.0743 21.0105 30.0159 20.8604C29.9574 20.7102 29.7967 20.318 30.0805 20.2596C30.3643 20.2012 30.8339 20.3514 31.0571 20.4452C31.2804 20.5391 31.5621 20.585 31.7019 20.61L31.6978 20.6079Z" fill="#F8F6ED"></path>
  <path d="M23.9081 18.0476C23.9081 18.0476 23.6765 18.1811 23.5993 18.2646C23.3635 18.519 23.1694 18.7902 22.9441 19.2137C22.7166 19.6351 22.4725 19.9208 22.6853 20.0126C22.8981 20.1044 22.9774 20.1253 22.9441 20.2713C22.9086 20.4173 22.9065 20.6551 23.0484 20.6676C23.1903 20.6801 23.3969 20.3318 23.9373 20.3672C23.9373 20.3672 23.6953 20.4611 23.4678 20.6947C23.2404 20.9284 23.0797 21.0911 23.1527 21.137C23.2258 21.1829 23.7996 20.8574 23.9707 20.7761C24.1418 20.6947 24.3902 20.5529 24.8159 20.7385C25.2416 20.9242 25.6923 21.2434 25.9782 21.4228C26.2661 21.6001 27.1134 21.9839 28.5532 21.9213C29.0394 21.9004 29.3942 21.6918 29.3942 21.6918C29.3942 21.6918 28.9038 21.6272 28.4155 21.4832C28.0858 21.3852 27.3596 20.8804 26.8212 20.5091C26.2828 20.1378 25.5483 19.7268 25.3167 19.6768C25.0851 19.6267 24.8972 19.6893 24.8972 19.6893C24.8972 19.6893 25.1956 19.6893 25.1539 19.8499C25.1122 20.0126 24.4632 20.094 24.1126 20.0439C23.76 19.9959 24.2274 19.7435 24.361 19.7206C24.361 19.7206 24.1502 19.6517 23.6869 19.7644C23.424 19.8291 23.4344 19.6684 23.4386 19.6205C23.4428 19.5725 23.495 19.3555 23.7746 19.2554C24.0563 19.1553 24.5091 19.0864 24.6218 18.8257C24.7345 18.5649 24.722 18.2958 24.9452 18.1874C24.9452 18.1874 24.7825 18.1936 24.6114 18.348C24.4382 18.5024 24.0667 18.4606 24.0667 18.4606C24.0667 18.4606 24.1418 18.1915 24.4006 18.1373C24.4006 18.1373 24.0688 18.1185 23.8789 18.3855C23.689 18.6525 23.4929 19.1448 23.4073 19.2929C23.3218 19.439 23.2425 19.6058 23.1277 19.6371C23.015 19.6663 23.0797 19.4244 23.1339 19.3034C23.1882 19.1824 23.5534 18.3751 23.9019 18.0497L23.9081 18.0476Z" fill="#F8F6ED"></path>
  <path d="M17.1658 19.9233C16.9634 19.9838 16.7464 20.0276 16.6901 20.3113C16.6901 20.3113 16.8132 20.1027 16.9947 20.1507C17.1763 20.1986 17.2848 20.3926 17.5456 20.3113C17.8065 20.2299 17.7439 19.8711 17.7418 19.6917C17.7418 19.5749 17.8398 19.4811 17.9442 19.5395C18.013 19.577 18.0506 19.6855 18.0882 19.7898C18.0882 19.7898 18.1633 20.0672 18.3615 20.2508C18.3615 20.2508 18.3219 20.0526 18.4033 19.8419C18.4847 19.6313 18.5222 19.335 18.4575 19.2537C18.3928 19.1723 18.2906 19.31 18.2509 19.3809C18.2134 19.4519 18.0861 19.4998 18.036 19.3496C17.988 19.1995 17.7939 19.0785 17.6187 19.1953C17.4434 19.3121 17.2994 19.3017 17.1053 19.1953C16.9092 19.0889 16.7193 19.0576 16.5815 19.1995C16.5815 19.1995 16.7506 19.1515 16.8612 19.2433C16.9718 19.335 16.7214 19.4247 16.6525 19.5207C16.5836 19.6167 16.7088 19.8399 16.9822 19.7105C17.2556 19.5812 17.3369 19.6417 17.362 19.6917C17.387 19.7418 17.3682 19.8649 17.1658 19.9254V19.9233Z" fill="#F8F6ED"></path>
  <path d="M24.9239 24.4431C25.1722 24.345 25.2995 23.9111 25.2995 23.9111C24.9489 24.1531 24.0704 24.345 23.4298 23.9904C22.7892 23.6358 22.4678 23.6462 21.9774 23.6671C21.487 23.6858 20.8506 23.3708 20.8506 23.3708C21.2617 23.8339 21.7792 23.932 22.3739 24.2115C22.9707 24.491 23.4277 25.1523 23.4277 25.1523C23.3526 24.4472 22.7412 24.0884 22.7412 24.0884C23.2107 24.0467 23.5654 24.3283 24.4961 24.5766C25.4268 24.8248 25.7878 24.2136 25.7878 24.2136C25.4706 24.4577 24.9239 24.4431 24.9239 24.4431Z" fill="#F8F6ED"></path>
  <path d="M30.3663 23.0435C30.5082 22.3572 30.2432 21.9922 29.974 21.9379C29.7194 21.8858 29.4273 22.0276 29.2311 22.2926C29.035 22.5575 28.4423 23.0915 28.0208 23.1624C26.3493 23.4357 25.2914 22.668 25.1641 22.4886C25.1641 22.4886 25.3936 23.1895 26.9399 23.4607C28.4862 23.7298 29.3062 23.1666 29.3062 23.1666C29.3062 23.1666 29.1894 23.3773 29.0412 23.5108C28.8931 23.6464 29.1059 23.7924 29.2937 23.7089C29.4836 23.6255 29.6422 23.2187 29.8634 23.1416C29.8634 23.1416 29.7883 23.2479 29.8071 23.3418C29.8258 23.4357 29.9949 23.6443 29.8843 23.7966C29.8843 23.7966 30.2223 23.7298 30.3642 23.0456L30.3663 23.0435Z" fill="#F8F6ED"></path>
  <path d="M16.8633 18.5693C17.1241 18.415 17.8128 17.8079 18.2113 17.7683C18.612 17.7287 19.1232 18.1772 19.1232 18.1772C19.1232 18.1772 19.1232 18.1 19.0648 18.029C19.0064 17.956 18.9605 17.9101 19.0168 17.8434C19.0732 17.7766 19.0752 17.6557 18.9709 17.6077C18.9709 17.6077 19.069 17.5847 19.2568 17.6849C19.4446 17.785 20.6027 17.566 20.8594 17.4137C20.8594 17.4137 20.6904 17.6473 20.2855 17.8309C20.2855 17.8309 20.4546 18.1062 20.8093 17.8976C21.162 17.689 21.4771 17.495 21.8715 17.5493C21.8715 17.5493 21.6941 17.2885 21.8965 17.2239C22.0989 17.1592 22.3243 17.0382 22.3869 16.9443C22.3869 16.9443 22.5246 17.2718 22.4057 17.4366C22.2867 17.6014 22.0468 17.5326 22.0468 17.5326C22.0468 17.5326 22.0864 17.7725 22.2533 17.8058C22.4203 17.8392 22.4725 17.7766 22.5476 17.7099C22.6227 17.6452 22.6707 17.7996 22.5831 17.9289C22.4954 18.0583 22.0113 18.6715 21.3352 18.8801C20.6591 19.0887 20.5026 18.9823 20.4504 18.9907C20.3982 18.9969 20.4567 19.1576 20.4337 19.2431C20.4108 19.3286 20.3064 19.2556 20.2417 19.1346C20.175 19.0136 20.0748 18.8176 20.1374 18.7883C20.2021 18.7591 20.2855 18.9031 20.4671 18.8906C20.6486 18.878 21.1036 18.7842 21.1682 18.7717C21.2329 18.7571 21.2267 18.7299 21.0389 18.7362C20.8511 18.7425 20.2063 18.78 19.8515 18.6632C19.4968 18.5464 19.2693 18.3086 18.9834 18.2564C18.6975 18.2043 18.4868 18.2522 18.5327 18.3294C18.5786 18.4066 18.973 18.6611 19.1149 18.7425C19.2547 18.8238 19.7806 19.1471 19.8077 19.4621C19.8348 19.7771 19.3257 20.0858 19.1671 20.1547C19.0085 20.2235 18.9229 20.1484 18.9667 20.0149C19.0105 19.8814 19.0669 19.6978 18.9709 19.5435C18.9709 19.5435 18.9438 19.7688 18.7852 20.0045C18.6287 20.2402 18.4158 20.307 18.4513 20.4071C18.5389 20.6532 19.2046 20.9974 19.647 21.1455C20.0894 21.2936 19.8557 20.5886 19.8891 20.332C19.9225 20.0754 20.175 19.7625 20.4379 20.2632C20.7008 20.7617 20.8323 21.7108 21.331 22.2136C21.331 22.2136 20.9408 21.2853 21.1369 20.8347C21.3331 20.3841 21.8756 19.6937 22.4891 19.0637C23.1026 18.4358 23.5826 18.0165 23.6369 17.7933C23.6911 17.5701 23.5346 17.5514 23.3071 17.374C23.0797 17.1967 22.6603 16.911 22.4933 16.1809C22.3264 15.4508 21.9445 16.2539 21.9445 16.2539C21.4875 17.178 19.4717 16.961 19.4717 16.961C18.9876 17.2155 18.2364 17.3261 17.6896 17.3052C17.1429 17.2843 16.7798 17.6494 16.6776 17.9373C16.5753 18.223 16.375 18.609 16.375 18.609C16.375 18.609 16.6025 18.7258 16.8633 18.5714V18.5693Z" fill="#F8F6ED"></path>
  <path d="M14.1815 21.8955C14.1815 21.8955 14.5237 21.157 14.9494 20.9714C14.9494 20.9714 14.8096 21.6764 15.1936 22.0477C15.5775 22.4211 16.3517 22.4983 16.3517 22.4983C16.3517 22.4983 15.2666 22.0269 15.4064 21.4741C15.5462 20.9192 15.3209 20.3477 15.277 20.1495C15.2332 19.9513 15.3668 19.2504 15.9427 19.3193C16.5186 19.3881 16.5875 18.8812 16.2724 18.8186C16.2724 18.8186 15.6339 18.7101 15.4043 19.1211C15.1748 19.532 15.1143 19.6029 14.7199 19.6363C14.3255 19.6718 13.7057 19.993 13.8601 20.5604C14.0146 21.1278 14.2733 21.3448 14.1815 21.8955Z" fill="#F8F6ED"></path>
  <path d="M18.1197 23.4467C18.1197 23.4467 18.7165 22.9001 19.6263 24.1371C19.6263 24.1371 19.5846 23.4008 18.7582 22.9231C17.9319 22.4454 17.3142 22.5372 17.6105 22.9544C17.9048 23.3716 18.1197 23.4446 18.1197 23.4446V23.4467Z" fill="#F8F6ED"></path>
  <path d="M20.2 26.1578C20.6048 25.6947 20.5443 24.8916 20.5443 24.8916C20.5026 25.3735 20.0226 25.8491 19.8557 25.9471C19.5468 26.1286 19.334 26.1328 19.334 26.1328C19.4446 26.0493 19.4508 25.8491 19.4508 25.8491C19.2422 25.9429 18.7163 25.9179 18.7163 25.9179C19.0085 26.21 19.3486 26.3122 19.3486 26.3122C19.1817 26.3768 19.0043 26.3497 19.0043 26.3497C19.0836 26.5124 19.2609 26.5395 19.2609 26.5395C19.1316 26.6334 18.9625 26.696 18.9625 26.696C19.2797 26.7836 19.7951 26.6188 20.2 26.1557V26.1578Z" fill="#F8F6ED"></path>
  <path d="M14.5735 23.5127C15.3226 23.6775 16.0488 23.9424 16.5309 23.9258C16.5309 23.9258 16.9586 24.8874 17.0797 25.3255C17.2007 25.7656 16.9357 25.9116 16.5267 25.5987C16.5267 25.5987 16.5267 25.9846 17.0442 26.235C17.5617 26.4853 17.5554 25.9513 17.4407 25.6634C17.3259 25.3776 16.7166 23.9758 16.9753 23.6587C16.9753 23.6587 16.654 23.6734 16.1573 23.3166C15.6607 22.9599 15.2642 22.9412 14.9533 23.1247C14.6424 23.3083 14.4879 23.1894 14.4754 23.0705C14.4754 23.0705 13.4613 23.2353 13.2275 24.0718C13.2275 24.0718 13.8243 23.3438 14.5735 23.5086V23.5127Z" fill="#F8F6ED"></path>
  <path d="M14.916 24.6654C15.1726 24.5486 15.4543 24.4964 15.9385 24.7718C15.9385 24.7718 15.7319 24.3608 14.9869 24.2878C14.244 24.2148 13.593 24.2941 13.4865 24.5548C13.3801 24.8156 14.2419 25.2536 14.7761 25.3788C14.7761 25.3788 14.7887 25.2536 14.7407 25.1493C14.7407 25.1493 14.5842 25.1973 14.4903 25.1285C14.4903 25.1285 14.7094 24.8594 14.9952 24.8844C14.9952 24.8844 14.6885 24.8385 14.4923 24.8844C14.2983 24.9303 14.0458 24.8573 13.9978 24.776C13.9978 24.776 14.2712 24.9637 14.9139 24.6696L14.916 24.6654Z" fill="#F8F6ED"></path>
  <path d="M25.2535 40.2798C24.4773 39.6623 21.848 37.9038 20.9987 37.0507C20.1473 36.1975 18.2671 33.1937 17.0652 31.8294C15.8632 30.4652 11.3454 25.707 10.1831 22.9368C9.02286 20.1645 8.75785 17.7385 8.41771 17.7239C8.0734 17.7114 6.65233 22.0357 7.9628 26.3057C9.27327 30.5757 12.2761 32.8432 13.574 33.2604C13.574 33.2604 13.188 32.6763 13.1087 32.1569C13.0857 32.0026 13.0315 31.8545 12.9397 31.7293C12.2823 30.8302 9.75739 27.2611 9.08755 24.6765C9.06042 24.5681 9.21276 24.5138 9.25866 24.616C9.76783 25.7154 11.0011 27.9328 13.8286 31.31C14.1834 31.7335 14.5381 32.2258 14.7343 32.5074C14.7823 32.5762 14.8887 32.5428 14.8887 32.4594C14.8887 32.0046 14.8991 31.1264 14.9909 30.9658C15.1141 30.7447 15.3895 31.5353 16.1136 33.5921C16.8377 35.6489 19.4837 39.8 20.2871 40.3841C21.0905 40.9703 21.6915 41.5397 21.8146 40.9995C21.9377 40.4571 21.3638 39.2743 22.0212 39.2055C22.6785 39.1367 23.7532 39.9773 23.9556 40.7804C24.0912 41.3249 23.7552 41.7108 23.2252 41.6566C22.6952 41.6044 23.0061 42.0049 23.6697 42.0529C24.4981 42.1113 26.0277 40.9014 25.2514 40.284L25.2535 40.2798Z" fill="#F8F6ED"></path>
  <path d="M14.8346 38.2091C14.8346 38.2091 13.5095 36.1482 13.4803 34.9279L14.2107 35.5078L13.76 34.4439C13.76 34.4439 9.77846 33.1589 7.19507 28.115C7.19507 28.115 6.27273 31.2544 8.76013 33.6032C11.2475 35.95 13.2195 35.9291 13.2195 35.9291C13.2195 35.9291 13.6661 37.4019 14.8346 38.2091Z" fill="#F8F6ED"></path>
  <path d="M15.465 40.1937C15.3752 40.0706 14.9558 39.4656 14.5322 39.1152C14.1065 38.7647 14.0773 38.3893 14.0773 38.3893C14.5197 38.4456 15.1812 38.9504 15.1812 38.9504C14.9892 38.5979 13.8352 37.7468 13.5306 37.5695C13.2259 37.3922 12.988 37.1272 12.988 37.1272C13.1946 37.1564 13.3511 37.1022 13.3511 37.1022C13.1278 37.0459 12.3578 36.5995 12.0531 36.4889C11.7485 36.3784 11.5899 36.4931 11.5899 36.4931C11.6254 36.2136 11.1433 35.9591 10.8866 35.9028C10.63 35.8464 10.2189 35.6629 10.0415 35.3792C9.86415 35.0955 9.62 35.0684 9.62 35.0684C9.58661 35.8277 10.5277 38.4226 12.3307 38.892C14.1336 39.3613 15.465 40.1937 15.465 40.1937Z" fill="#F8F6ED"></path>
  <path d="M11.782 39.3525C11.709 39.3003 11.6631 39.269 11.6631 39.269C11.6965 39.2962 11.7361 39.3233 11.782 39.3525Z" fill="#F8F6ED"></path>
  <path d="M18.4009 44.2584C18.4009 44.2584 18.2924 43.7015 17.6079 43.1403C17.1217 42.7419 15.853 42.1078 15.4815 41.1482C15.4815 41.1482 15.8384 41.2629 16.1263 41.5696C16.1263 41.5696 15.7632 40.5725 14.4611 40.2846C13.2779 40.0239 12.2304 39.6379 11.7817 39.3542C12.0676 39.5566 12.7896 40.0864 13.0213 40.4369C13.3092 40.877 13.5263 41.6822 13.0108 41.8616C13.0108 41.8616 13.4344 43.6535 15.0579 44.6881C15.0579 44.6881 13.6035 43.2092 13.5784 41.9513C13.5784 41.9513 14.7345 43.9497 18.4009 44.2626V44.2584Z" fill="#F8F6ED"></path>
  <path d="M18.783 45.7108C18.4554 45.6148 18.3887 45.3416 18.3699 45.206C18.3532 45.0725 18.2342 44.9411 17.9567 45.0662C17.9567 45.0662 17.9692 44.8743 17.8294 44.8242C17.8294 44.8242 17.8586 44.7012 17.7292 44.6553C17.7292 44.6553 17.6833 44.5343 17.4997 44.6177C17.3161 44.7012 16.7318 45.1371 16.4709 45.1392C16.2101 45.1413 15.9305 45.1392 15.3691 44.8055C15.3691 44.8055 16.7276 46.0779 19.3214 46.0508C19.3214 46.0508 19.1086 45.8047 18.781 45.7087L18.783 45.7108Z" fill="#F8F6ED"></path>
  <path d="M38.1729 16.5207C37.862 16.8273 37.43 17.3134 36.6287 17.378C35.4956 17.4698 35.0908 16.7293 35.0428 16.6292C35.0428 16.6292 35.0428 16.6271 35.0428 16.625C35.0407 16.6208 35.0386 16.6167 35.0386 16.6167C34.8446 16.2203 34.5295 15.7113 33.9431 15.7864C33.2065 15.8803 32.3259 16.1494 31.6769 15.6571C31.5684 15.5278 31.4223 15.3171 31.3952 15.0709C31.391 15.0376 31.3827 15.0042 31.3702 14.9708C31.2241 14.9583 31.0029 14.9854 30.8652 15.2107C30.6461 15.5695 31.126 15.6967 31.126 15.6967C30.74 15.7405 29.9616 16.164 29.5443 16.5478C29.129 16.9316 28.7763 17.086 28.6261 16.9254C28.4758 16.7627 28.5426 16.4936 28.5426 16.4936C28.9788 16.2975 29.1415 15.4714 29.177 15.315C29.2125 15.1585 29.3773 15.219 29.4775 15.2858C29.5776 15.3505 29.7571 15.3525 29.8907 15.2378C30.0263 15.121 30.1974 15.1627 30.1974 15.1627C30.1765 15.048 30.2016 14.7121 30.4353 14.6078C30.6628 14.5056 31.1051 14.6308 31.1239 14.637C30.8568 14.4076 30.4436 14.2762 30.0972 14.5077C29.755 14.7351 29.4879 14.6016 29.1937 14.4493C30.5438 14.0196 31.2658 14.0968 31.8 14.1823C32.7557 14.3346 33.8575 14.7747 34.3083 15.2691C34.759 15.7635 35.7419 16.0931 37.2861 15.8553C38.6091 15.6529 39.2872 14.418 39.2872 14.418C38.0248 14.6558 37.9663 14.2887 37.0836 14.3095C36.201 14.3304 35.4977 15.3546 35.1305 15.3442C34.7653 15.3338 34.2937 14.7393 34.734 14.2657C35.1743 13.7922 36.9104 13.9591 38.0895 13.2895C39.2685 12.6199 39.9195 9.90183 39.9195 9.90183C36.7852 10.6069 34.9385 13.4126 34.5712 13.859C34.206 14.3075 33.7156 14.2845 33.0792 14.0571C32.4406 13.8277 31.967 13.786 31.967 13.786C31.2763 13.5815 31.7771 13.3145 31.9002 13.2832C34.4564 12.6512 35.625 11.2619 35.4852 9.49506C35.3454 7.72822 36.1947 6.51835 36.1947 6.51835C33.5508 7.40907 32.7683 10.6027 32.5575 11.4788C32.3467 12.355 32.1151 12.8243 31.4119 13.1831C30.7087 13.544 28.1253 14.8769 29.6966 13.0934C31.2679 11.3099 30.8777 9.38242 30.1619 8.15585C29.4441 6.93137 29.5109 5.49829 29.5109 5.49829C29.4274 5.8988 28.9725 7.1066 28.3381 8.05364C27.7058 9.00277 28.3486 10.1772 28.6908 10.7258C29.033 11.2723 29.8364 11.8835 29.4754 12.8243C29.2938 13.2999 28.9161 13.6963 28.5864 13.9695C28.48 14.0446 28.1566 14.1906 27.7601 13.5106C27.7142 13.4167 27.662 13.3145 27.6036 13.2019C27.6036 13.2019 27.6036 13.1977 27.6015 13.1956C27.5952 13.181 27.589 13.1706 27.5827 13.1602C27.3782 12.7868 27.0923 12.3362 26.7188 11.9148C25.8591 10.9469 24.7448 11.3453 24.0728 11.2911C23.4009 11.2369 22.5892 10.9135 22.0967 10.4484C22.0967 10.4484 22.1593 12.551 23.7494 13.3542C25.0515 14.0133 26.3244 13.0809 27.637 13.7839C27.6954 13.8277 28.1441 14.1906 27.8853 14.4681C27.6933 14.6141 27.4992 14.7852 27.228 14.8749C26.6541 15.0626 26.2806 14.7622 25.9467 14.4743C25.6128 14.1865 24.5757 14.0154 23.9121 14.7351C23.572 15.1043 23.2047 15.5403 22.7477 15.9325C22.7477 15.9325 23.2381 15.8699 23.5031 16.4185C23.7682 16.9671 24.0165 17.6242 24.6258 17.7869C24.6258 17.7869 24.7364 17.0088 25.2602 16.65C25.7839 16.2912 25.8612 15.995 25.6984 15.728C25.6984 15.728 26.0051 15.5924 26.3432 15.4026C26.6833 15.2128 26.8357 15.121 27.0548 15.1231C27.0548 15.1231 26.8106 15.2545 26.5832 15.6362C26.3557 16.018 25.8048 16.6667 25.4793 16.8628C25.1538 17.061 25.0849 17.2425 25.1037 17.4344C25.1225 17.6263 25.2602 17.8203 25.6045 17.7327C25.9488 17.6451 26.3745 17.5032 26.7439 17.7452C27.1132 17.9872 27.7371 18.8445 28.5343 18.8737C28.5343 18.8737 27.6411 18.5024 27.5368 17.9413C27.5368 17.9413 28.1503 18.3313 28.8556 18.1812C29.561 18.031 30.0534 17.8683 30.621 18.1311C31.1886 18.3939 31.7061 18.4649 32.065 18.4795C32.689 18.5066 34.0829 18.7047 34.2645 19.6622C34.2645 19.6622 34.421 19.389 34.2123 19.0135C34.0057 18.6401 33.8847 18.4252 33.8826 18.3126C33.8826 18.3126 34.0808 18.5838 34.4794 18.3293C34.4794 18.3293 34.6171 19.3013 34.9322 19.6893C35.2494 20.0773 35.842 20.2192 35.842 20.2192C35.842 20.2192 35.8045 20.7156 35.0428 20.6906C34.3145 20.6656 33.989 21.0598 33.6197 21.3853C33.6197 21.3853 34.1205 21.1641 34.6234 21.2747C35.1284 21.3832 35.6062 21.1641 35.6062 21.1641C35.6062 21.1641 35.5666 21.404 35.2765 21.477C35.0574 21.5334 35.1513 21.7107 35.2139 21.7628C35.2765 21.815 35.7398 22.1946 36.3324 22.1571C36.3324 22.1571 36.1968 22.3114 36.2531 22.4512C36.3095 22.593 36.612 22.5868 36.8729 22.5784C37.1337 22.5701 37.4196 22.7745 37.4196 22.981C37.4196 23.1876 36.9501 23.3586 36.539 23.1145C36.1279 22.8705 35.8525 22.3594 35.8525 22.3594C35.8525 22.3594 35.5478 22.5576 34.7715 22.4178C34.2373 22.3281 33.5383 21.938 33.2107 21.7566C32.883 21.5751 32.6034 21.8901 32.4573 21.9464C32.3092 22.0027 32.3196 22.0715 32.424 22.2801C32.5262 22.4887 32.305 22.52 32.0963 22.5784C31.8877 22.6368 31.7958 23.0102 31.4369 23.102C31.0801 23.1938 30.9027 22.7245 30.9027 22.7245C30.8172 24.3515 28.167 26.1726 27.276 26.9465C27.2071 27.007 27.1403 27.0675 27.0777 27.1322C26.4183 27.7893 26.6499 28.9032 27.5159 29.2432C28.2797 29.5436 28.9308 29.9274 29.1791 30.111C31.5559 31.8486 31.3764 33.0209 31.3764 33.0209C30.8965 32.2554 30.3936 32.1928 30.3936 32.1928C30.5209 33.288 30.0805 34.429 30.0805 34.429C31.0446 34.4144 31.2157 35.6827 31.3159 36.3794C31.4035 36.9823 31.7374 37.6581 31.871 37.8605C32.3488 38.5864 33.3546 38.6865 34.3041 38.9494C35.4831 39.2769 35.5269 39.7775 35.5269 39.7775C35.6688 39.4875 35.7565 38.9619 35.5895 38.5447C35.4226 38.1275 34.9426 37.6352 34.4731 37.1178C34.0036 36.6005 33.8805 36.1458 33.8805 36.1458C34.2665 36.0728 35.4184 36.8738 35.5895 36.9635C35.7607 37.0511 36.0695 37.074 36.0945 36.903C36.1196 36.7319 36.0611 36.4733 35.7878 36.1917C35.5144 35.9101 35.0887 35.8391 34.542 35.7682C33.9953 35.6973 33.7303 35.5492 33.7303 35.5492C33.9869 35.4344 35.2369 35.0193 35.8087 35.1361C36.3804 35.2509 36.1905 35.7724 36.1905 35.7724C36.4868 35.8099 36.6016 35.6326 36.6371 35.4762C36.6726 35.3176 36.5995 35.0026 36.564 34.8879C36.5286 34.7711 36.4785 34.769 36.3282 34.7669C36.178 34.7648 36.0549 34.6439 35.9172 34.4895C35.7794 34.3351 35.5353 34.0222 35.3934 33.9325C35.2515 33.8428 34.9176 33.8407 34.7235 33.7072C34.5295 33.5758 34.6964 33.0126 34.6964 33.0126C34.6964 33.0126 35.6667 32.8186 36.6183 32.7831C37.5699 32.7477 38.1249 33.3109 38.1249 33.3109C38.2167 32.8374 37.6262 31.5378 37.2652 30.6241C36.9042 29.7105 36.7059 28.874 36.8103 28.5048C36.9146 28.1355 37.4655 28.2211 37.4655 28.2211L37.6304 28.7551C37.6304 28.7551 37.6846 28.2065 37.6763 26.9882C37.6763 26.8589 37.6679 26.7254 37.6575 26.5919C37.9163 26.2727 38.3378 25.6282 38.4797 24.9461C38.6404 24.1721 38.3691 23.7257 38.031 23.5943C37.7556 23.4859 37.5198 23.5422 37.4447 23.5443C37.3695 23.5443 37.261 23.4483 37.4113 23.3065C37.4989 23.223 37.6095 23.1208 37.6846 23.0499C37.6846 23.0499 38.0081 22.7933 38.4525 22.9289C38.897 23.0645 38.9346 23.6298 38.7426 23.8134C38.7426 23.8134 39.2831 23.5005 39.0765 23.0603C38.8699 22.6202 38.0269 22.2968 38.054 21.9339C38.0498 21.913 38.054 21.8942 38.0686 21.8755C38.1729 21.7503 38.8219 21.9318 38.8219 21.9318C38.8219 21.9318 38.7217 22.0715 38.8052 22.1821C38.8887 22.2927 39.041 22.3031 39.1328 22.4345C39.2226 22.5659 39.2309 22.858 39.3561 22.8371C39.4813 22.8162 39.7046 22.0632 39.4291 21.1099C39.1537 20.1566 38.705 19.9104 38.3816 19.8792C38.0582 19.8479 37.6032 19.5266 37.5573 19.1678C37.5114 18.809 37.1567 18.2855 37.1567 18.2855C37.1567 18.2855 37.0941 18.1853 36.9793 18.0685C37.0169 18.0915 37.0544 18.1123 37.0857 18.1374C37.4655 18.4169 38.5256 19.001 39.9112 18.0289C41.2968 17.0568 41.664 15.1815 41.664 15.1815C41.3156 15.5299 40.75 15.7385 39.8152 15.8574C38.8803 15.9763 38.4755 16.2203 38.1646 16.527L38.1729 16.5207ZM36.1592 15.6154C36.7289 15.4214 37.5365 15.0417 37.8912 15.0188C38.3378 14.9917 38.4129 15.2774 37.8286 15.4965C37.3194 15.6863 36.6162 15.7239 36.178 15.728C36.1133 15.728 36.0987 15.6362 36.1613 15.6154H36.1592ZM36.7832 11.7751C37.1087 11.5018 38.0644 10.7446 39.066 10.4129C39.1391 10.39 39.1933 10.4797 39.137 10.5318C38.9555 10.6966 38.7071 10.9573 38.4922 11.3057C38.1416 11.871 37.5782 11.9962 36.8207 11.9002C36.7602 11.8919 36.7352 11.8168 36.7832 11.7771V11.7751ZM29.6298 8.17463C29.6507 8.09953 29.7508 8.08493 29.7926 8.14959C29.9553 8.40617 30.2767 8.96731 30.3643 9.52844C30.4269 9.92478 30.404 10.2836 30.3685 10.536C30.3581 10.6006 30.2642 10.6027 30.2537 10.536C30.212 10.2752 30.1244 9.91852 29.9387 9.59519C29.5338 8.89638 29.5672 8.41034 29.6298 8.17254V8.17463ZM25.8799 13.1184C25.4647 13.2373 24.7719 13.3834 24.2606 13.2227C24.0269 13.1497 23.8099 13.035 23.6179 12.9078C23.5073 12.8327 23.595 12.6637 23.7223 12.7096C24.5173 13.0016 25.3854 13.0329 25.8674 13.0225C25.9258 13.0225 25.9384 13.1038 25.882 13.1205L25.8799 13.1184ZM31.8751 17.4448C30.6168 17.0714 30.4436 16.3872 30.4436 16.3872C30.9111 16.2808 32.2382 16.4665 33.0458 16.9024C33.8534 17.3384 33.8429 18.0789 33.8429 18.0789C32.8768 16.7502 31.8731 17.4448 31.8731 17.4448H31.8751ZM35.913 29.2349C35.6041 29.2974 35.143 28.9053 35.143 28.9053C35.1785 28.8031 35.4017 28.7572 35.4017 28.7572C35.0532 28.7113 34.6547 28.9074 34.4502 29.0012C34.2436 29.093 33.8742 29.2515 33.5216 29.287C33.1689 29.3225 33.1752 29.0137 33.2044 28.8948C33.2336 28.7759 33.5278 28.2232 33.0312 28.0438C32.5346 27.8644 31.9941 28.2857 31.8042 28.3692C31.6143 28.4526 31.2971 28.4213 31.4661 28.2169C31.6352 28.0125 32.3906 27.7329 32.9081 27.6891C33.4235 27.6453 33.4798 27.9582 33.4798 27.9582C33.4798 27.9582 33.5884 27.4743 33.0688 27.4555C32.5471 27.4367 31.4641 27.7809 30.5981 27.9728C29.7321 28.1647 29.1499 27.9624 29.1728 27.5452C29.1958 27.1259 29.9762 26.8339 31.0884 26.8047C32.2007 26.7755 32.6472 26.5836 32.6472 26.5836C31.3284 26.5377 31.1949 26.3499 31.1949 26.3499C32.5659 25.964 34.3187 26.3458 35.0595 26.6211C35.8003 26.8965 35.7899 27.5097 35.913 27.8957C36.0361 28.2816 36.2218 29.1702 35.913 29.2349ZM38.1354 24.8522C38.127 25.5426 37.7264 26.0704 37.6179 26.1997C37.5093 25.4133 37.2756 24.6123 37.0649 24.0991C37.1045 23.9928 37.1817 23.9635 37.2694 23.9385C37.5866 23.8446 38.1437 24.0532 38.1354 24.8522ZM36.9647 21.6251C36.9647 21.6251 37.3424 20.6489 36.612 20.142C36.612 20.142 36.7477 20.0606 36.8708 19.366C36.8708 19.366 37.933 20.482 36.9626 21.6272L36.9647 21.6251ZM40.4412 17.0172C40.1783 17.3634 39.738 17.8599 39.258 18.0372C38.9909 18.1353 38.703 18.1749 38.4421 18.1832C38.3273 18.1874 38.3002 18.0205 38.4108 17.9892C39.2288 17.7577 39.955 17.255 40.3577 16.9358C40.4099 16.8941 40.4809 16.9608 40.4391 17.0151L40.4412 17.0172Z" fill="#F8F6ED"></path>
  <path d="M29.4108 39.6756C28.7034 39.4649 28.0899 39.2 27.564 38.9163C27.6976 39.25 27.9626 39.734 28.4739 40.195C29.9867 41.4946 27.5599 41.8575 27.1926 42.7649C26.7335 43.8976 26.0908 44.004 25.9844 43.9998C26.6563 44.0666 27.3303 43.3094 27.5912 42.984C27.852 42.6565 29.054 40.9167 31.7083 40.8562C34.3605 40.7957 34.8342 40.2784 34.8342 40.2784C34.8342 40.2784 32.6244 40.6289 29.4129 39.6756H29.4108Z" fill="#F8F6ED"></path>
  <path d="M25.1057 0C11.9426 0 1.271 11.5397 1.271 25.7746C1.271 40.0094 11.9426 51.5492 25.1057 51.5492C38.2689 51.5492 48.9405 40.0094 48.9405 25.7746C48.9405 11.5397 38.2689 0 25.1057 0ZM25.1057 50.6167C13.084 50.6167 3.33896 39.4942 3.33896 25.7767C3.33896 12.0592 13.084 0.936614 25.1057 0.936614C37.1274 0.936614 46.8725 12.0592 46.8725 25.7767C46.8725 39.4942 37.1274 50.6167 25.1057 50.6167Z" fill="#F8F6ED"></path>
</svg>
